<svg xmlns="http://www.w3.org/2000/svg" xmlns:xlink="http://www.w3.org/1999/xlink" width="500" zoomAndPan="magnify" viewBox="0 0 375 374.999991" height="500" preserveAspectRatio="xMidYMid meet" version="1.0"><defs><g/><clipPath id="7c77c1ce76"><path d="M 350.273438 210.929688 L 375 210.929688 L 375 235.75 L 350.273438 235.75 Z M 350.273438 210.929688 " clip-rule="nonzero"/></clipPath><clipPath id="ebc971016b"><path d="M 375 223.292969 L 355.507812 210.929688 L 355.507812 220.675781 L 350.273438 220.675781 L 350.273438 225.914062 L 355.507812 225.914062 L 355.507812 235.660156 Z M 375 223.292969 " clip-rule="nonzero"/></clipPath><clipPath id="0aa239ed55"><path d="M 59.449219 216.285156 L 357.164062 216.285156 L 357.164062 230.300781 L 59.449219 230.300781 Z M 59.449219 216.285156 " clip-rule="nonzero"/></clipPath><clipPath id="82c8fcf77e"><path d="M 78 146.445312 L 135 146.445312 L 135 153 L 78 153 Z M 78 146.445312 " clip-rule="nonzero"/></clipPath><clipPath id="72d5828412"><path d="M 64 167 L 126 167 L 126 173.355469 L 64 173.355469 Z M 64 167 " clip-rule="nonzero"/></clipPath><clipPath id="ce26438663"><path d="M 47.320312 156 L 144.390625 156 L 144.390625 164 L 47.320312 164 Z M 47.320312 156 " clip-rule="nonzero"/></clipPath><clipPath id="4cf6111c06"><path d="M 44 178.605469 L 100 178.605469 L 100 185 L 44 185 Z M 44 178.605469 " clip-rule="nonzero"/></clipPath><clipPath id="1bed07535c"><path d="M 30 199 L 91 199 L 91 205.515625 L 30 205.515625 Z M 30 199 " clip-rule="nonzero"/></clipPath><clipPath id="5f7c4b1cc9"><path d="M 12.742188 189 L 109.8125 189 L 109.8125 196 L 12.742188 196 Z M 12.742188 189 " clip-rule="nonzero"/></clipPath><clipPath id="d46c6cc811"><path d="M 66 209.617188 L 122 209.617188 L 122 216 L 66 216 Z M 66 209.617188 " clip-rule="nonzero"/></clipPath></defs><rect x="-37.5" width="450" fill="#ffffff" y="-37.499999" height="449.999989" fill-opacity="1"/><rect x="-37.5" width="450" fill="#ffffff" y="-37.499999" height="449.999989" fill-opacity="1"/><g clip-path="url(#7c77c1ce76)"><g clip-path="url(#ebc971016b)"><path fill="#ff3131" d="M 350.273438 210.929688 L 375 210.929688 L 375 235.652344 L 350.273438 235.652344 Z M 350.273438 210.929688 " fill-opacity="1" fill-rule="nonzero"/></g></g><g clip-path="url(#0aa239ed55)"><path fill="#ff3131" d="M 59.449219 216.285156 L 357.164062 216.285156 L 357.164062 230.300781 L 59.449219 230.300781 Z M 59.449219 216.285156 " fill-opacity="1" fill-rule="nonzero"/></g><g fill="#ff3131" fill-opacity="1"><g transform="translate(0.0000045, 229.690293)"><g><path d="M 56.328125 0 L 63.140625 -34.3125 L 30.421875 -34.3125 L 23.609375 0 L 3.890625 0 L 20.921875 -85.171875 L 40.640625 -85.171875 L 34.0625 -52.4375 L 66.796875 -52.4375 L 73.375 -85.171875 L 93.078125 -85.171875 L 76.046875 0 Z M 56.328125 0 "/></g></g></g><g clip-path="url(#82c8fcf77e)"><path fill="#ffffff" d="M 78.816406 149.191406 C 78.816406 149.191406 83.117188 148.773438 89.320312 148.304688 C 92.460938 148.066406 96.050781 147.792969 99.824219 147.597656 C 114.445312 146.84375 131.328125 146.464844 131.328125 146.464844 L 134.363281 146.484375 L 134.328125 152.554688 L 131.292969 152.539062 C 131.292969 152.539062 114.417969 151.960938 99.804688 151.035156 C 96.035156 150.796875 92.449219 150.480469 89.3125 150.203125 C 83.113281 149.660156 78.816406 149.191406 78.816406 149.191406 Z M 78.816406 149.191406 " fill-opacity="1" fill-rule="evenodd"/></g><g clip-path="url(#72d5828412)"><path fill="#ffffff" d="M 64.828125 170.160156 C 64.828125 170.160156 69.542969 169.746094 76.332031 169.28125 C 79.769531 169.042969 83.703125 168.769531 87.832031 168.578125 C 103.84375 167.832031 122.328125 167.464844 122.328125 167.464844 L 125.363281 167.480469 L 125.328125 173.554688 L 122.292969 173.535156 C 122.292969 173.535156 103.8125 172.949219 87.8125 172.015625 C 83.6875 171.773438 79.753906 171.457031 76.320312 171.179688 C 69.539062 170.632812 64.828125 170.160156 64.828125 170.160156 Z M 64.828125 170.160156 " fill-opacity="1" fill-rule="evenodd"/></g><g clip-path="url(#ce26438663)"><path fill="#ffffff" d="M 47.320312 159.472656 C 47.320312 159.472656 55.074219 159.074219 66.164062 158.632812 C 71.792969 158.410156 78.257812 158.152344 85.007812 157.976562 C 111.238281 157.289062 141.53125 156.988281 141.53125 156.988281 L 144.566406 157.007812 L 144.53125 163.082031 L 141.496094 163.0625 C 141.496094 163.0625 111.210938 162.410156 84.988281 161.414062 C 78.238281 161.15625 71.777344 160.820312 66.152344 160.53125 C 55.066406 159.960938 47.320312 159.472656 47.320312 159.472656 Z M 47.320312 159.472656 " fill-opacity="1" fill-rule="evenodd"/></g><g clip-path="url(#4cf6111c06)"><path fill="#ffffff" d="M 44.238281 181.351562 C 44.238281 181.351562 48.539062 180.933594 54.742188 180.464844 C 57.882812 180.226562 61.472656 179.953125 65.246094 179.757812 C 79.867188 179.003906 96.75 178.625 96.75 178.625 L 99.785156 178.644531 L 99.75 184.714844 L 96.714844 184.699219 C 96.714844 184.699219 79.839844 184.121094 65.226562 183.195312 C 61.457031 182.957031 57.871094 182.640625 54.734375 182.363281 C 48.535156 181.820312 44.238281 181.351562 44.238281 181.351562 Z M 44.238281 181.351562 " fill-opacity="1" fill-rule="evenodd"/></g><g clip-path="url(#1bed07535c)"><path fill="#ffffff" d="M 30.253906 202.320312 C 30.253906 202.320312 34.964844 201.90625 41.753906 201.441406 C 45.191406 201.203125 49.125 200.929688 53.253906 200.738281 C 69.265625 199.992188 87.75 199.625 87.75 199.625 L 90.789062 199.640625 L 90.75 205.714844 L 87.714844 205.695312 C 87.714844 205.695312 69.234375 205.113281 53.234375 204.175781 C 49.109375 203.933594 45.175781 203.617188 41.742188 203.339844 C 34.960938 202.792969 30.253906 202.320312 30.253906 202.320312 Z M 30.253906 202.320312 " fill-opacity="1" fill-rule="evenodd"/></g><g clip-path="url(#5f7c4b1cc9)"><path fill="#ffffff" d="M 12.742188 191.632812 C 12.742188 191.632812 20.496094 191.234375 31.585938 190.792969 C 37.214844 190.570312 43.679688 190.3125 50.429688 190.136719 C 76.664062 189.449219 106.953125 189.152344 106.953125 189.152344 L 109.988281 189.167969 L 109.953125 195.242188 L 106.917969 195.222656 C 106.917969 195.222656 76.632812 194.570312 50.410156 193.574219 C 43.660156 193.316406 37.199219 192.984375 31.574219 192.691406 C 20.488281 192.121094 12.742188 191.632812 12.742188 191.632812 Z M 12.742188 191.632812 " fill-opacity="1" fill-rule="evenodd"/></g><g clip-path="url(#d46c6cc811)"><path fill="#ffffff" d="M 66.109375 212.363281 C 66.109375 212.363281 70.410156 211.945312 76.613281 211.476562 C 79.753906 211.238281 83.34375 210.960938 87.117188 210.769531 C 101.738281 210.011719 118.621094 209.636719 118.621094 209.636719 L 121.65625 209.65625 L 121.621094 215.726562 L 118.582031 215.710938 C 118.582031 215.710938 101.707031 215.132812 87.097656 214.207031 C 83.324219 213.964844 79.738281 213.648438 76.601562 213.375 C 70.40625 212.832031 66.109375 212.363281 66.109375 212.363281 Z M 66.109375 212.363281 " fill-opacity="1" fill-rule="evenodd"/></g><g fill="#ff3131" fill-opacity="1"><g transform="translate(86.26346, 208.811798)"><g><path d="M 1.25 0 L 7.234375 -29.90625 L 16.0625 -29.90625 L 10.078125 0 Z M 8.140625 -40.15625 C 8.453125 -41.675781 9.140625 -42.863281 10.203125 -43.71875 C 11.265625 -44.570312 12.554688 -45 14.078125 -45 C 15.859375 -45 17.203125 -44.410156 18.109375 -43.234375 C 19.023438 -42.054688 19.3125 -40.632812 18.96875 -38.96875 C 18.664062 -37.488281 17.984375 -36.320312 16.921875 -35.46875 C 15.859375 -34.613281 14.566406 -34.1875 13.046875 -34.1875 C 11.265625 -34.1875 9.90625 -34.765625 8.96875 -35.921875 C 8.039062 -37.078125 7.765625 -38.488281 8.140625 -40.15625 Z M 8.140625 -40.15625 "/></g></g></g><g fill="#ff3131" fill-opacity="1"><g transform="translate(103.522028, 208.811798)"><g><path d="M 1.375 0 L 7.34375 -29.90625 L 13.78125 -29.90625 L 14.015625 -27.0625 C 16.628906 -29.488281 19.78125 -30.703125 23.46875 -30.703125 C 25.59375 -30.703125 27.453125 -30.285156 29.046875 -29.453125 C 30.648438 -28.617188 31.867188 -27.421875 32.703125 -25.859375 C 34.179688 -27.453125 35.898438 -28.65625 37.859375 -29.46875 C 39.816406 -30.289062 41.894531 -30.703125 44.09375 -30.703125 C 46.75 -30.703125 48.953125 -30.128906 50.703125 -28.984375 C 52.453125 -27.847656 53.675781 -26.265625 54.375 -24.234375 C 55.082031 -22.203125 55.148438 -19.800781 54.578125 -17.03125 L 51.15625 0 L 42.265625 0 L 45.625 -16.515625 C 46.050781 -18.648438 45.890625 -20.3125 45.140625 -21.5 C 44.398438 -22.695312 43.117188 -23.296875 41.296875 -23.296875 C 39.359375 -23.296875 37.742188 -22.640625 36.453125 -21.328125 C 35.160156 -20.023438 34.289062 -18.269531 33.84375 -16.0625 L 30.59375 0 L 21.875 0 L 25.1875 -16.515625 C 25.601562 -18.648438 25.4375 -20.3125 24.6875 -21.5 C 23.945312 -22.695312 22.6875 -23.296875 20.90625 -23.296875 C 18.96875 -23.296875 17.34375 -22.640625 16.03125 -21.328125 C 14.726562 -20.023438 13.847656 -18.269531 13.390625 -16.0625 L 10.203125 0 Z M 1.375 0 "/></g></g></g><g fill="#ff3131" fill-opacity="1"><g transform="translate(161.392366, 208.811798)"><g><path d="M 11.796875 0.5625 C 8.109375 0.5625 5.351562 -0.335938 3.53125 -2.140625 C 1.707031 -3.941406 1.097656 -6.34375 1.703125 -9.34375 C 2.234375 -12.039062 3.523438 -14.128906 5.578125 -15.609375 C 7.628906 -17.085938 10.234375 -17.828125 13.390625 -17.828125 L 24.375 -17.828125 L 24.671875 -19.25 C 24.972656 -20.769531 24.703125 -21.957031 23.859375 -22.8125 C 23.023438 -23.664062 21.773438 -24.09375 20.109375 -24.09375 C 18.660156 -24.09375 17.375 -23.78125 16.25 -23.15625 C 15.132812 -22.53125 14.367188 -21.664062 13.953125 -20.5625 L 5.46875 -20.5625 C 6.457031 -23.789062 8.316406 -26.285156 11.046875 -28.046875 C 13.785156 -29.816406 17.050781 -30.703125 20.84375 -30.703125 C 23.8125 -30.703125 26.28125 -30.160156 28.25 -29.078125 C 30.226562 -27.992188 31.625 -26.484375 32.4375 -24.546875 C 33.257812 -22.609375 33.40625 -20.3125 32.875 -17.65625 L 29.34375 0 L 22.953125 0 L 22.734375 -3.25 C 19.734375 -0.707031 16.085938 0.5625 11.796875 0.5625 Z M 10.203125 -9.0625 C 10.003906 -8 10.238281 -7.160156 10.90625 -6.546875 C 11.570312 -5.941406 12.644531 -5.640625 14.125 -5.640625 C 16.332031 -5.640625 18.296875 -6.265625 20.015625 -7.515625 C 21.742188 -8.773438 22.859375 -10.410156 23.359375 -12.421875 L 15.375 -12.421875 C 12.375 -12.421875 10.648438 -11.300781 10.203125 -9.0625 Z M 10.203125 -9.0625 "/></g></g></g><g fill="#ff3131" fill-opacity="1"><g transform="translate(197.504369, 208.811798)"><g><path d="M 1.375 0 L 9.796875 -42.15625 L 18.625 -42.15625 L 10.203125 0 Z M 1.375 0 "/></g></g></g><g fill="#ff3131" fill-opacity="1"><g transform="translate(214.990786, 208.811798)"><g><path d="M 11.796875 0.5625 C 8.109375 0.5625 5.351562 -0.335938 3.53125 -2.140625 C 1.707031 -3.941406 1.097656 -6.34375 1.703125 -9.34375 C 2.234375 -12.039062 3.523438 -14.128906 5.578125 -15.609375 C 7.628906 -17.085938 10.234375 -17.828125 13.390625 -17.828125 L 24.375 -17.828125 L 24.671875 -19.25 C 24.972656 -20.769531 24.703125 -21.957031 23.859375 -22.8125 C 23.023438 -23.664062 21.773438 -24.09375 20.109375 -24.09375 C 18.660156 -24.09375 17.375 -23.78125 16.25 -23.15625 C 15.132812 -22.53125 14.367188 -21.664062 13.953125 -20.5625 L 5.46875 -20.5625 C 6.457031 -23.789062 8.316406 -26.285156 11.046875 -28.046875 C 13.785156 -29.816406 17.050781 -30.703125 20.84375 -30.703125 C 23.8125 -30.703125 26.28125 -30.160156 28.25 -29.078125 C 30.226562 -27.992188 31.625 -26.484375 32.4375 -24.546875 C 33.257812 -22.609375 33.40625 -20.3125 32.875 -17.65625 L 29.34375 0 L 22.953125 0 L 22.734375 -3.25 C 19.734375 -0.707031 16.085938 0.5625 11.796875 0.5625 Z M 10.203125 -9.0625 C 10.003906 -8 10.238281 -7.160156 10.90625 -6.546875 C 11.570312 -5.941406 12.644531 -5.640625 14.125 -5.640625 C 16.332031 -5.640625 18.296875 -6.265625 20.015625 -7.515625 C 21.742188 -8.773438 22.859375 -10.410156 23.359375 -12.421875 L 15.375 -12.421875 C 12.375 -12.421875 10.648438 -11.300781 10.203125 -9.0625 Z M 10.203125 -9.0625 "/></g></g></g><g fill="#ff3131" fill-opacity="1"><g transform="translate(251.102789, 208.811798)"><g><path d="M -0.859375 11.390625 L 0.625 3.9375 L 3.765625 3.9375 C 5.390625 3.9375 6.640625 3.664062 7.515625 3.125 C 8.390625 2.59375 9.285156 1.550781 10.203125 0 L 10.9375 -1.25 L 3.46875 -29.90625 L 12.53125 -29.90625 L 15.09375 -19.03125 L 16.921875 -11.390625 L 21.015625 -19.03125 L 27.171875 -29.90625 L 37.09375 -29.90625 L 17.09375 4.046875 C 15.988281 5.910156 14.847656 7.375 13.671875 8.4375 C 12.492188 9.5 11.132812 10.253906 9.59375 10.703125 C 8.0625 11.160156 6.15625 11.390625 3.875 11.390625 Z M -0.859375 11.390625 "/></g></g></g><g fill="#ff3131" fill-opacity="1"><g transform="translate(285.676896, 208.811798)"><g><path d="M 11.796875 0.5625 C 8.109375 0.5625 5.351562 -0.335938 3.53125 -2.140625 C 1.707031 -3.941406 1.097656 -6.34375 1.703125 -9.34375 C 2.234375 -12.039062 3.523438 -14.128906 5.578125 -15.609375 C 7.628906 -17.085938 10.234375 -17.828125 13.390625 -17.828125 L 24.375 -17.828125 L 24.671875 -19.25 C 24.972656 -20.769531 24.703125 -21.957031 23.859375 -22.8125 C 23.023438 -23.664062 21.773438 -24.09375 20.109375 -24.09375 C 18.660156 -24.09375 17.375 -23.78125 16.25 -23.15625 C 15.132812 -22.53125 14.367188 -21.664062 13.953125 -20.5625 L 5.46875 -20.5625 C 6.457031 -23.789062 8.316406 -26.285156 11.046875 -28.046875 C 13.785156 -29.816406 17.050781 -30.703125 20.84375 -30.703125 C 23.8125 -30.703125 26.28125 -30.160156 28.25 -29.078125 C 30.226562 -27.992188 31.625 -26.484375 32.4375 -24.546875 C 33.257812 -22.609375 33.40625 -20.3125 32.875 -17.65625 L 29.34375 0 L 22.953125 0 L 22.734375 -3.25 C 19.734375 -0.707031 16.085938 0.5625 11.796875 0.5625 Z M 10.203125 -9.0625 C 10.003906 -8 10.238281 -7.160156 10.90625 -6.546875 C 11.570312 -5.941406 12.644531 -5.640625 14.125 -5.640625 C 16.332031 -5.640625 18.296875 -6.265625 20.015625 -7.515625 C 21.742188 -8.773438 22.859375 -10.410156 23.359375 -12.421875 L 15.375 -12.421875 C 12.375 -12.421875 10.648438 -11.300781 10.203125 -9.0625 Z M 10.203125 -9.0625 "/></g></g></g><g fill="#ff3131" fill-opacity="1"><g transform="translate(321.788899, 208.811798)"><g><path d="M 1.375 0 L 7.34375 -29.90625 L 13.734375 -29.90625 L 13.953125 -26.828125 C 15.359375 -28.117188 16.941406 -29.085938 18.703125 -29.734375 C 20.472656 -30.378906 22.328125 -30.703125 24.265625 -30.703125 C 26.921875 -30.703125 29.113281 -30.125 30.84375 -28.96875 C 32.570312 -27.8125 33.769531 -26.195312 34.4375 -24.125 C 35.101562 -22.050781 35.148438 -19.628906 34.578125 -16.859375 L 31.21875 0 L 22.390625 0 L 25.640625 -16.40625 C 26.085938 -18.644531 25.953125 -20.351562 25.234375 -21.53125 C 24.515625 -22.707031 23.242188 -23.296875 21.421875 -23.296875 C 19.410156 -23.296875 17.671875 -22.59375 16.203125 -21.1875 C 14.742188 -19.78125 13.769531 -17.898438 13.28125 -15.546875 L 10.203125 0 Z M 1.375 0 "/></g></g></g><g fill="#545454" fill-opacity="1"><g transform="translate(307.318081, 245.899184)"><g><path d="M 2.5625 0 L 3.984375 -7.125 L 1.140625 -7.125 L 1.53125 -9.0625 L 9.3125 -9.0625 L 8.921875 -7.125 L 6.078125 -7.125 L 4.65625 0 Z M 2.5625 0 "/></g></g></g><g fill="#545454" fill-opacity="1"><g transform="translate(315.890282, 245.899184)"><g><path d="M 0.3125 0 L 1.671875 -6.796875 L 3.125 -6.796875 L 3.1875 -5.921875 C 3.46875 -6.242188 3.78125 -6.46875 4.125 -6.59375 C 4.46875 -6.726562 4.890625 -6.796875 5.390625 -6.796875 L 6.1875 -6.796875 L 5.828125 -5 L 5.109375 -5 C 4.546875 -5 4.070312 -4.84375 3.6875 -4.53125 C 3.300781 -4.226562 3.035156 -3.707031 2.890625 -2.96875 L 2.296875 0 Z M 0.3125 0 "/></g></g></g><g fill="#545454" fill-opacity="1"><g transform="translate(321.837814, 245.899184)"><g><path d="M 2.671875 0.125 C 1.835938 0.125 1.210938 -0.078125 0.796875 -0.484375 C 0.390625 -0.890625 0.253906 -1.4375 0.390625 -2.125 C 0.503906 -2.738281 0.796875 -3.210938 1.265625 -3.546875 C 1.734375 -3.878906 2.328125 -4.046875 3.046875 -4.046875 L 5.53125 -4.046875 L 5.609375 -4.375 C 5.671875 -4.71875 5.609375 -4.984375 5.421875 -5.171875 C 5.234375 -5.367188 4.945312 -5.46875 4.5625 -5.46875 C 4.238281 -5.46875 3.945312 -5.394531 3.6875 -5.25 C 3.4375 -5.113281 3.265625 -4.921875 3.171875 -4.671875 L 1.234375 -4.671875 C 1.460938 -5.398438 1.882812 -5.960938 2.5 -6.359375 C 3.125 -6.765625 3.867188 -6.96875 4.734375 -6.96875 C 5.410156 -6.96875 5.972656 -6.84375 6.421875 -6.59375 C 6.867188 -6.351562 7.179688 -6.015625 7.359375 -5.578125 C 7.546875 -5.140625 7.582031 -4.617188 7.46875 -4.015625 L 6.65625 0 L 5.21875 0 L 5.15625 -0.734375 C 4.476562 -0.160156 3.648438 0.125 2.671875 0.125 Z M 2.3125 -2.0625 C 2.269531 -1.8125 2.320312 -1.617188 2.46875 -1.484375 C 2.625 -1.347656 2.867188 -1.28125 3.203125 -1.28125 C 3.703125 -1.28125 4.148438 -1.421875 4.546875 -1.703125 C 4.941406 -1.992188 5.191406 -2.367188 5.296875 -2.828125 L 3.5 -2.828125 C 2.8125 -2.828125 2.414062 -2.570312 2.3125 -2.0625 Z M 2.3125 -2.0625 "/></g></g></g><g fill="#545454" fill-opacity="1"><g transform="translate(330.035062, 245.899184)"><g><path d="M 2.265625 0 L 0.796875 -6.796875 L 2.828125 -6.796875 L 3.15625 -4.65625 L 3.609375 -2.359375 L 4.96875 -4.65625 L 6.171875 -6.796875 L 8.421875 -6.796875 L 4.21875 0 Z M 2.265625 0 "/></g></g></g><g fill="#545454" fill-opacity="1"><g transform="translate(337.883211, 245.899184)"><g><path d="M 3.59375 0.1875 C 2.851562 0.1875 2.222656 0.03125 1.703125 -0.28125 C 1.191406 -0.601562 0.828125 -1.039062 0.609375 -1.59375 C 0.398438 -2.15625 0.367188 -2.796875 0.515625 -3.515625 C 0.660156 -4.203125 0.929688 -4.804688 1.328125 -5.328125 C 1.734375 -5.847656 2.234375 -6.25 2.828125 -6.53125 C 3.421875 -6.820312 4.070312 -6.96875 4.78125 -6.96875 C 5.570312 -6.96875 6.222656 -6.789062 6.734375 -6.4375 C 7.242188 -6.082031 7.59375 -5.59375 7.78125 -4.96875 C 7.976562 -4.351562 7.976562 -3.640625 7.78125 -2.828125 L 2.34375 -2.828125 C 2.332031 -2.378906 2.453125 -2.023438 2.703125 -1.765625 C 2.960938 -1.515625 3.320312 -1.390625 3.78125 -1.390625 C 4.46875 -1.390625 5.03125 -1.640625 5.46875 -2.140625 L 7.5625 -2.140625 C 7.144531 -1.398438 6.585938 -0.828125 5.890625 -0.421875 C 5.191406 -0.015625 4.425781 0.1875 3.59375 0.1875 Z M 2.640625 -4.078125 L 6.125 -4.078125 C 6.101562 -4.503906 5.960938 -4.832031 5.703125 -5.0625 C 5.453125 -5.289062 5.109375 -5.40625 4.671875 -5.40625 C 4.222656 -5.40625 3.820312 -5.285156 3.46875 -5.046875 C 3.113281 -4.804688 2.835938 -4.484375 2.640625 -4.078125 Z M 2.640625 -4.078125 "/></g></g></g><g fill="#545454" fill-opacity="1"><g transform="translate(346.274403, 245.899184)"><g><path d="M 0.3125 0 L 2.21875 -9.578125 L 4.234375 -9.578125 L 2.3125 0 Z M 0.3125 0 "/></g></g></g></svg>